<svg xmlns="http://www.w3.org/2000/svg" viewBox="0 0 170 40" style="enable-background:new 0 0 170 40" xml:space="preserve"><path d="m88 15-13.3-4.3c-.2-.1-.5.1-.6.3v8.7c0 .2.2.4.4.4h.1L88 15.8c.2-.1.4-.3.3-.6-.1-.1-.2-.2-.3-.2z" style="fill:#1258c9"/><path d="m23.1.2-7.3 10.1c-.1.2-.1.5.1.6 0 0 .1 0 .1.1l7.3 2.4c.2.1.5 0 .6-.3V.4c0-.2-.2-.4-.4-.4s-.3.1-.4.2z" style="fill:#0b9b34"/><path d="m.6 32.5 11.8-3.8c.2-.1.4-.3.3-.6 0 0 0-.1-.1-.1l-4.5-6.2c-.1-.2-.4-.2-.6-.1l-.1.1-7.3 10c-.1.2-.1.5.1.6.1.1.3.1.4.1z" style="fill:#fcd314"/><path d="M23.1 39.8.1 8.2c-.2-.2-.1-.5.1-.6.1-.1.3-.1.4-.1l23 7.5c.2.1.3.2.3.4v5c0 .2-.2.4-.4.4h-.1l-7.9-2.6c-.2-.1-.5.1-.5.3 0 .1 0 .3.1.4L24 31.1c.1.1.1.2.1.3v8.1c0 .2-.2.4-.4.5-.4 0-.5-.1-.6-.2z" style="fill:#e51524"/><path d="M73.3 27.1v-1.3h-2.1c-1.6 0-2.8 1.3-2.8 2.8v1.5c0 1.6 1.3 2.8 2.8 2.8h2.1v-1.3h-2.1c-.8 0-1.5-.7-1.5-1.5v-1.5c0-.8.7-1.5 1.5-1.5h2.1zm5.9 0v-1.3h-2.1c-1.6 0-2.8 1.3-2.8 2.8v1.5c0 1.6 1.3 2.8 2.8 2.8h2.1v-1.3h-2.1c-.8 0-1.5-.7-1.5-1.5v-1.5c0-.8.7-1.5 1.5-1.5h2.1zm-13.6 1.7h-.5v-1.2c0-1-.8-1.7-1.7-1.7h-3.3c-1 0-1.7.8-1.7 1.7v3.7c0 1 .8 1.7 1.7 1.7h3.3c1 0 1.7-.8 1.7-1.7v-1.7c.4 0 .8.4.8.8v.1h1.3c.1-.9-.6-1.7-1.6-1.7zm-5.9 2.6c0-.1 0-.1 0 0v-3.8c0-.5.4-.9.9-.9h.6v5.6h-.6c-.5-.1-.9-.5-.9-.9zm3.2.8h-.6v-5.6h.6c.5 0 .9.4.9.8v3.8c0 .6-.4 1-.9 1zm22.5-.9h-1.7l-.6-2h1.5c.8 0 1.5-.6 1.7-1.4.4.1.7.4.7.8v.1h1.3c0-1-.8-1.7-1.7-1.7h-.4c-.2-.7-.9-1.2-1.7-1.2H83c-1 0-1.7.8-1.7 1.7 0 .2 0 .5.1.7l1 3.1h-.3c-1 0-1.7.8-1.7 1.7h1.3c0-.5.4-.9.9-.9h2.3c.5 0 .9.4.9.8v.1h1.3c.1-1-.7-1.8-1.7-1.8zm-1.9-4.7h.5c.5 0 .9.4.9.8v.1c0 .5-.4.9-.9.9h-.5c-.5 0-.9-.4-.9-.8v-.1c0-.5.4-.9.9-.9zm-29.9 2.3h-1v-1.6c0-.3-.2-.5-.5-.5h-.8c-.5 0-.9-.4-.9-.8v-.1H49c0 1 .8 1.7 1.7 1.7h.5v1.3h-1c-1 0-1.7.8-1.7 1.7h1.3c0-.5.4-.9.9-.9h.5V33h1.3v-3.3h.5c.5 0 .9.4.9.8v.1h1.3c.1-1-.7-1.7-1.6-1.7zm-21.4-1.7-.4-1.4h-1.3l.5 1.5c-1.2.4-2 1.5-2 2.7v3h1.3v-3c0-.8.7-1.5 1.5-1.5s1.5.7 1.5 1.5v3h1.3v-3c-.1-1.4-1.1-2.6-2.4-2.8zm15.4-.1v-1.3h-2.1c-1.6 0-2.8 1.3-2.8 2.8v1.5c0 1.6 1.3 2.8 2.8 2.8h2.1v-1.3h-2.1c-.8 0-1.5-.7-1.5-1.5v-1.5c0-.8.7-1.5 1.5-1.5h2.1zm-7.3-1.2H37c-1 0-1.7.8-1.7 1.7h1.3c0-.5.4-.9.9-.9h.5v2.5c0 1.3-1.1 2.4-2.4 2.4V33c2 0 3.6-1.6 3.7-3.6v-2.7h.5c.5 0 .9.4.9.8v.1H42c0-.9-.8-1.7-1.7-1.7zM51.7 9.5c-2.7 0-4.8 2.2-4.8 4.8v7.5h2.3v-7.5c-.1-1.4 1-2.6 2.4-2.7 1.4-.1 2.6 1 2.7 2.4v7.8h2.3v-7.5c0-2.6-2.2-4.8-4.9-4.8zm13.6 3.6v-1.2h.7c1.6 0 3-1.3 3-3h-2.3c0 .9-.7 1.6-1.6 1.6h-2c-.8 0-1.5-.6-1.5-1.4V9h-2.3c0 1.6 1.3 3 3 3h.7v1.2c-2.2.5-3.7 2.5-3.7 4.7v1.5h2.3v-1.5c.1-1.4 1.2-2.5 2.7-2.4 1.3.1 2.4 1.1 2.4 2.4v4H69v-4c-.1-2.4-1.6-4.3-3.7-4.8zm-30.9.4h-1c-2.5 0-4.6 2.1-4.6 4.6v3.7h2.3v-3.7c0-1.3 1-2.3 2.3-2.3h1v-2.3zm5.2 0h-2V8.9h-2.3v12.9h2.3v-6h2c1.3 0 2.3 1 2.3 2.3v3.7h2.3v-3.7c0-2.5-2-4.6-4.6-4.6z" style="fill:#fff"/></svg>